<svg fill="none" height="800" viewBox="0 0 24 24" width="800" xmlns="http://www.w3.org/2000/svg"><g stroke="#000" stroke-width="1.5"><path d="m9 4.45962c.91153-.28994 1.9104-.45962 3-.45962 4.1819 0 7.028 2.49956 8.7251 4.70433.8499 1.1042 1.2749 1.65627 1.2749 3.29567s-.425 2.1915-1.2749 3.2957c-1.6971 2.2047-4.5432 4.7043-8.7251 4.7043-4.18189 0-7.02804-2.4996-8.72511-4.7043-.84993-1.1042-1.27489-1.6563-1.27489-3.2957s.42496-2.19147 1.27489-3.29567c.48123-.62519 1.05484-1.27408 1.72511-1.88296" stroke-linecap="round"/><path d="m15 12c0 1.6569-1.3431 3-3 3s-3-1.3431-3-3 1.3431-3 3-3 3 1.3431 3 3z"/></g></svg>