<svg fill="none" height="800" viewBox="0 0 24 24" width="800" xmlns="http://www.w3.org/2000/svg"><path d="m2.68936 6.70456c-.16317-.38072-.60408-.55709-.9848-.39392s-.55709.60408-.39392.9848zm12.89784 6.62414-.2747-.6979zm-6.54575.409c.22591-.3471.12759-.8117-.2196-1.0376s-.81177-.1276-1.03768.2196zm-2.67009 1.3533c-.22591.3471-.12759.8117.2196 1.0376s.81177.1276 1.03768-.2196zm16.31804-7.79556c.1631-.38072-.0132-.82163-.394-.9848-.3807-.16317-.8216.0132-.9848.39392zm-3.6894 3.83336-.5133-.5468zm.9697 2.0304c.2929.2929.7677.2929 1.0606 0s.2929-.7678 0-1.0607zm-8.7197 3.3408c0 .4142.3358.75.75.75s.75-.3358.75-.75zm5.1214-.591c.2259.3472.6905.4455 1.0376.2196.3472-.2259.4455-.6905.2196-1.0376zm-10.84107-4.2498c.29289-.2929.29289-.7678 0-1.0607s-.76777-.2929-1.06066 0zm-2.56066.4393c-.29289.2929-.29289.7678 0 1.0607s.76777.2929 1.06066 0zm9.03033 1.1515c-3.22389 0-5.53867-1.6054-7.0754-3.26034-.76815-.82723-1.33135-1.65682-1.70201-2.27952-.1849-.31064-.32072-.56782-.40919-.74477-.04421-.08841-.07651-.15662-.09713-.20126-.0103-.02231-.01768-.03871-.02216-.04878-.00224-.00503-.00375-.00849-.00454-.0103-.0004-.0009-.00061-.0014-.00065-.00148-.00001-.00004.00001.00002.00009.00019.00003.00008.00012.00029.00014.00033.0001.00023.00021.00049-.68915.29593s-.68923.29575-.68908.29609c.00006.00015.00022.00051.00035.00081.00025.00059.00056.0013.00091.0021.00069.00162.00158.00366.00265.00612.00215.00491.00505.0115.0087.01971.0073.01642.01762.03932.031.06828.02674.05791.06573.14009.11723.24308.10293.20587.25618.49556.4619.84117.41059.6898 1.03489 1.61024 1.89174 2.53294 1.71327 1.8451 4.39849 3.7397 8.1746 3.7397zm3.3125-.6192c-.9704.382-2.0708.6192-3.3125.6192v1.5c1.4382 0 2.7246-.2758 3.8619-.7234zm-7.52833.2889-1.41281 2.1713 1.25728.818 1.41281-2.1713zm14.21583-5.9197c-.6894-.29544-.6893-.29559-.6892-.29573 0-.00004 0-.00017.0001-.00025 0-.00014.0001-.00026.0001-.00034.0001-.00016.0001-.00019.0001-.00008-.0001.0002-.0004.00092-.001.00216-.0011.00247-.0031.00699-.006.01348-.0058.01299-.0152.03385-.0283.06201-.0263.05632-.0672.1417-.1232.25142-.112.2196-.2836.53564-.5172.91053-.4685.75196-1.1791 1.72877-2.1487 2.6388l1.0266 1.0937c1.089-1.0222 1.8784-2.10983 2.3952-2.93924.2591-.41578.4515-.76966.5804-1.02231.0644-.1264.1131-.22772.1464-.29908.0166-.03568.0294-.06389.0384-.08403.0045-.01007.0081-.01812.0107-.02408.0013-.00298.0023-.00543.0032-.00736.0004-.00096.0007-.00179.001-.00248.0002-.00035.0003-.00066.0004-.00094.0001-.00014.0002-.00033.0002-.0004.0001-.00017.0002-.00034-.6892-.29578zm-3.5133 3.582c-.859.8062-1.9128 1.5523-3.1742 2.0488l.5494 1.3958c1.4736-.58 2.6847-1.4436 3.6514-2.3509zm-.017 1.0772 1.5 1.5 1.0606-1.0607-1.5-1.5zm-7.2197 2.3408v2.5h1.5v-2.5zm3.7086-.2623 1.4128 2.1713 1.2572-.818-1.4128-2.1713zm-10.48893-3.1392-1.5 1.5 1.06066 1.0607 1.5-1.5z" fill="#000"/></svg>