<?xml version="1.0" standalone="no"?>
<!DOCTYPE svg PUBLIC "-//W3C//DTD SVG 20010904//EN"
 "http://www.w3.org/TR/2001/REC-SVG-20010904/DTD/svg10.dtd">
<svg version="1.0" xmlns="http://www.w3.org/2000/svg"
 width="700.000000pt" height="700.000000pt" viewBox="0 0 700.000000 700.000000"
 preserveAspectRatio="xMidYMid meet">
<metadata>
Created by potrace 1.14, written by Peter Selinger 2001-2017
</metadata>
<g transform="translate(0.000000,700.000000) scale(0.100000,-0.100000)"
fill="#000000" stroke="none">
<path d="M2702 6187 c-18 -6 -53 -28 -77 -49 -91 -80 -96 -218 -12 -306 68
-72 7 -67 877 -69 747 -2 787 -2 825 16 175 81 175 314 0 400 -38 18 -72 19
-810 18 -481 0 -782 -4 -803 -10z"/>
<path d="M2269 5466 c-2 -2 -70 -7 -150 -10 -80 -4 -156 -8 -170 -11 -28 -4
-94 -13 -164 -21 -27 -4 -53 -8 -56 -10 -4 -2 -23 -6 -44 -10 -65 -10 -217
-64 -299 -105 -226 -115 -427 -311 -546 -532 -141 -263 -180 -536 -182 -1292
-1 -292 0 -313 19 -355 61 -135 227 -172 340 -75 73 62 75 74 78 470 6 640 31
846 126 1036 101 203 345 389 555 425 16 2 35 7 42 9 7 2 40 7 75 11 34 3 65
8 68 10 33 19 2660 29 2934 11 432 -28 614 -108 810 -352 58 -72 117 -195 139
-290 52 -225 60 -391 60 -1180 -1 -727 -7 -883 -49 -1105 -34 -179 -116 -326
-251 -449 -147 -135 -294 -197 -534 -226 -30 -3 -68 -8 -85 -11 -183 -25
-2713 -25 -2960 1 -69 7 -149 17 -170 21 -223 42 -343 101 -474 232 -126 126
-184 226 -225 382 -28 108 -60 158 -124 193 -38 21 -59 25 -107 23 -100 -4
-172 -59 -202 -153 -15 -47 -15 -62 -4 -115 36 -175 121 -370 211 -482 228
-285 480 -445 790 -500 19 -3 46 -8 60 -11 14 -3 43 -8 65 -10 22 -3 56 -7 75
-10 52 -6 181 -15 305 -20 136 -6 2427 -6 2545 0 193 9 290 17 380 30 14 2 45
7 70 10 80 11 240 55 316 86 351 146 653 496 730 844 1 6 7 31 13 58 6 26 14
64 16 85 3 20 8 46 10 58 27 125 38 436 38 1079 0 653 -8 868 -39 1083 -48
342 -151 557 -372 778 -177 178 -395 296 -627 340 -11 2 -31 6 -45 9 -47 10
-155 24 -230 30 -41 4 -93 9 -115 12 -43 6 -2640 15 -2646 9z"/>
<path d="M5100 4299 c-106 -9 -169 -56 -200 -150 -35 -103 11 -213 108 -261
41 -19 62 -22 172 -22 108 0 131 3 167 22 112 58 153 197 90 304 -55 95 -148
124 -337 107z"/>
<path d="M3305 4285 c-330 -61 -628 -282 -776 -577 -44 -87 -94 -231 -103
-293 -4 -23 -9 -52 -11 -65 -10 -46 -7 -246 5 -308 6 -34 13 -72 15 -85 9 -46
43 -143 75 -211 53 -115 118 -207 208 -300 327 -336 833 -425 1256 -222 269
130 470 362 568 656 14 41 28 97 32 123 4 27 10 59 12 70 9 44 5 227 -6 303
-52 344 -279 654 -589 806 -114 56 -131 63 -231 89 -104 27 -344 34 -455 14z
m355 -442 c426 -106 626 -594 401 -973 -121 -202 -347 -324 -583 -315 -46 2
-92 6 -103 8 -261 61 -448 240 -511 487 -95 374 163 755 546 806 25 4 46 7 48
9 8 7 147 -8 202 -22z"/>
</g>
</svg>
